<?xml version="1.0" encoding="utf-8"?><!-- Generator: Adobe Illustrator 15.0.0, SVG Export Plug-In . SVG Version: 6.00 Build 0)  --><!DOCTYPE svg PUBLIC "-//W3C//DTD SVG 1.1//EN" "http://www.w3.org/Graphics/SVG/1.1/DTD/svg11.dtd"><svg xmlns="http://www.w3.org/2000/svg" xmlns:xlink="http://www.w3.org/1999/xlink" viewBox="0 0 50 50" width="50px" height="50px"><path d="M25,1C11.215,1,0,10.959,0,23.2c0,5.915,2.573,11.443,7.262,15.635c-0.866,2.561-3.089,4.32-4.744,5.63c-1.516,1.199-2.611,2.066-2.284,3.293l0.107,0.401l0.36,0.208c0.907,0.521,2.121,0.785,3.609,0.785c4.946,0,12.063-2.841,15.195-4.206c1.781,0.372,3.55,0.554,5.395,0.554c13.786,0,25-9.959,25-22.2C49.9,11.003,38.73,1,25,1z M26.6,34c0,0.2-0.1,0.4-0.399,0.4h-2.3V34.3c-0.2,0-0.4-0.1-0.4-0.399V20.5c0-0.2,0.1-0.4,0.4-0.4h2.3c0.2,0,0.399,0.1,0.399,0.4V34z M26.6,15.8c0,0.2-0.1,0.4-0.399,0.4h-2.4c-0.2,0-0.4-0.1-0.4-0.4v-2.6c0-0.2,0.1-0.4,0.4-0.4h2.4c0.2,0,0.399,0.1,0.399,0.4V15.8z"/></svg>